<svg width="199" height="80" viewBox="0 0 199 80" fill="none" xmlns="http://www.w3.org/2000/svg">
<g filter="url(#filter0_f_568_277)">
<path d="M130.728 -42C146.815 -41.9999 161.091 -34.2472 170.024 -22.2744C173.885 -23.5119 178.001 -24.1816 182.272 -24.1816C204.414 -24.1816 222.363 -6.23242 222.363 15.9092C222.363 37.7047 204.971 55.4384 183.308 55.9873L182.272 56H79.1816V55.7393C65.5242 53.8768 55 42.1686 55 28C55 12.796 67.1181 0.422462 82.2227 0.0107422C85.6147 -23.7405 106.039 -42 130.728 -42Z" fill="#D8D8D8" fill-opacity="0.7"/>
</g>
<g filter="url(#filter1_f_568_277)">
<path d="M79.7275 12C95.8147 12.0001 110.091 19.7528 119.024 31.7256C122.885 30.4881 127.001 29.8184 131.272 29.8184C153.414 29.8184 171.363 47.7676 171.363 69.9092C171.363 91.7047 153.971 109.438 132.308 109.987L131.272 110H28.1816V109.739C14.5242 107.877 4 96.1686 4 82C4 66.796 16.1181 54.4225 31.2227 54.0107C34.6147 30.2595 55.0385 12 79.7275 12Z" fill="#D8D8D8" fill-opacity="0.7"/>
</g>
<defs>
<filter id="filter0_f_568_277" x="51" y="-46" width="175.363" height="106" filterUnits="userSpaceOnUse" color-interpolation-filters="sRGB">
<feFlood flood-opacity="0" result="BackgroundImageFix"/>
<feBlend mode="normal" in="SourceGraphic" in2="BackgroundImageFix" result="shape"/>
<feGaussianBlur stdDeviation="2" result="effect1_foregroundBlur_568_277"/>
</filter>
<filter id="filter1_f_568_277" x="0" y="8" width="175.363" height="106" filterUnits="userSpaceOnUse" color-interpolation-filters="sRGB">
<feFlood flood-opacity="0" result="BackgroundImageFix"/>
<feBlend mode="normal" in="SourceGraphic" in2="BackgroundImageFix" result="shape"/>
<feGaussianBlur stdDeviation="2" result="effect1_foregroundBlur_568_277"/>
</filter>
</defs>
</svg>
