<svg width="152" height="80" viewBox="0 0 152 80" fill="none" xmlns="http://www.w3.org/2000/svg">
<path d="M11.5 59.5L1 75.5" stroke="url(#paint0_linear_568_77)" stroke-opacity="0.3" stroke-width="2" stroke-linecap="round"/>
<path d="M39 49L28.5 65" stroke="url(#paint1_linear_568_77)" stroke-opacity="0.3" stroke-width="2" stroke-linecap="round"/>
<path d="M58 60L47.5 76" stroke="url(#paint2_linear_568_77)" stroke-opacity="0.3" stroke-width="2" stroke-linecap="round"/>
<path d="M86 49L75.5 65" stroke="url(#paint3_linear_568_77)" stroke-opacity="0.3" stroke-width="2" stroke-linecap="round"/>
<path d="M110 61L99.5 77" stroke="url(#paint4_linear_568_77)" stroke-opacity="0.3" stroke-width="2" stroke-linecap="round"/>
<path d="M138 48L127.5 64" stroke="url(#paint5_linear_568_77)" stroke-opacity="0.3" stroke-width="2" stroke-linecap="round"/>
<path d="M78.7275 -58C94.8147 -57.9999 109.091 -50.2472 118.024 -38.2744C121.885 -39.5119 126.001 -40.1816 130.272 -40.1816C152.414 -40.1816 170.363 -22.2324 170.363 -0.0908203C170.363 21.7047 152.971 39.4384 131.308 39.9873L130.272 40H27.1816V39.7393C13.5242 37.8768 3 26.1686 3 12C3 -3.20401 15.1181 -15.5775 30.2227 -15.9893C33.6147 -39.7405 54.0385 -58 78.7275 -58Z" fill="#B4B4B4"/>
<defs>
<linearGradient id="paint0_linear_568_77" x1="6.25" y1="59.5" x2="6.25" y2="75.5" gradientUnits="userSpaceOnUse">
<stop stop-color="white" stop-opacity="0"/>
<stop offset="0.895833" stop-color="white"/>
</linearGradient>
<linearGradient id="paint1_linear_568_77" x1="33.75" y1="49" x2="33.75" y2="65" gradientUnits="userSpaceOnUse">
<stop stop-color="white" stop-opacity="0"/>
<stop offset="0.895833" stop-color="white"/>
</linearGradient>
<linearGradient id="paint2_linear_568_77" x1="52.75" y1="60" x2="52.75" y2="76" gradientUnits="userSpaceOnUse">
<stop stop-color="white" stop-opacity="0"/>
<stop offset="0.895833" stop-color="white"/>
</linearGradient>
<linearGradient id="paint3_linear_568_77" x1="80.75" y1="49" x2="80.75" y2="65" gradientUnits="userSpaceOnUse">
<stop stop-color="white" stop-opacity="0"/>
<stop offset="0.895833" stop-color="white"/>
</linearGradient>
<linearGradient id="paint4_linear_568_77" x1="104.75" y1="61" x2="104.75" y2="77" gradientUnits="userSpaceOnUse">
<stop stop-color="white" stop-opacity="0"/>
<stop offset="0.895833" stop-color="white"/>
</linearGradient>
<linearGradient id="paint5_linear_568_77" x1="132.75" y1="48" x2="132.75" y2="64" gradientUnits="userSpaceOnUse">
<stop stop-color="white" stop-opacity="0"/>
<stop offset="0.895833" stop-color="white"/>
</linearGradient>
</defs>
</svg>
