<svg width="149" height="80" viewBox="0 0 149 80" fill="none" xmlns="http://www.w3.org/2000/svg">
<path d="M38.25 39C38.8023 39 39.25 39.4477 39.25 40V43.835L41.9619 41.123C42.3524 40.7326 42.9864 40.7325 43.377 41.123C43.7675 41.5136 43.7674 42.1476 43.377 42.5381L40.665 45.25H44.5C45.0523 45.25 45.5 45.6977 45.5 46.25C45.5 46.8023 45.0523 47.25 44.5 47.25H40.665L43.377 49.9619C43.7674 50.3524 43.7675 50.9864 43.377 51.377C42.9864 51.7675 42.3524 51.7674 41.9619 51.377L39.25 48.665V52.5C39.25 53.0523 38.8023 53.5 38.25 53.5C37.6977 53.5 37.25 53.0523 37.25 52.5V48.665L34.5381 51.377C34.1476 51.7675 33.5136 51.7675 33.123 51.377C32.7325 50.9864 32.7325 50.3524 33.123 49.9619L35.835 47.25H32C31.4477 47.25 31 46.8023 31 46.25C31 45.6977 31.4477 45.25 32 45.25H35.835L33.123 42.5381C32.7325 42.1476 32.7325 41.5136 33.123 41.123C33.5136 40.7325 34.1476 40.7325 34.5381 41.123L37.25 43.835V40C37.25 39.4477 37.6977 39 38.25 39Z" fill="url(#paint0_linear_568_183)"/>
<path d="M22.25 63C22.8023 63 23.25 63.4477 23.25 64V67.835L25.9619 65.123C26.3524 64.7326 26.9864 64.7325 27.377 65.123C27.7675 65.5136 27.7674 66.1476 27.377 66.5381L24.665 69.25H28.5C29.0523 69.25 29.5 69.6977 29.5 70.25C29.5 70.8023 29.0523 71.25 28.5 71.25H24.665L27.377 73.9619C27.7674 74.3524 27.7675 74.9864 27.377 75.377C26.9864 75.7675 26.3524 75.7674 25.9619 75.377L23.25 72.665V76.5C23.25 77.0523 22.8023 77.5 22.25 77.5C21.6977 77.5 21.25 77.0523 21.25 76.5V72.665L18.5381 75.377C18.1476 75.7675 17.5136 75.7675 17.123 75.377C16.7325 74.9864 16.7325 74.3524 17.123 73.9619L19.835 71.25H16C15.4477 71.25 15 70.8023 15 70.25C15 69.6977 15.4477 69.25 16 69.25H19.835L17.123 66.5381C16.7325 66.1476 16.7325 65.5136 17.123 65.123C17.5136 64.7325 18.1476 64.7325 18.5381 65.123L21.25 67.835V64C21.25 63.4477 21.6977 63 22.25 63Z" fill="url(#paint1_linear_568_183)"/>
<path d="M52.25 66C52.8023 66 53.25 66.4477 53.25 67V70.835L55.9619 68.123C56.3524 67.7326 56.9864 67.7325 57.377 68.123C57.7675 68.5136 57.7674 69.1476 57.377 69.5381L54.665 72.25H58.5C59.0523 72.25 59.5 72.6977 59.5 73.25C59.5 73.8023 59.0523 74.25 58.5 74.25H54.665L57.377 76.9619C57.7674 77.3524 57.7675 77.9864 57.377 78.377C56.9864 78.7675 56.3524 78.7674 55.9619 78.377L53.25 75.665V79.5C53.25 80.0523 52.8023 80.5 52.25 80.5C51.6977 80.5 51.25 80.0523 51.25 79.5V75.665L48.5381 78.377C48.1476 78.7675 47.5136 78.7675 47.123 78.377C46.7325 77.9864 46.7325 77.3524 47.123 76.9619L49.835 74.25H46C45.4477 74.25 45 73.8023 45 73.25C45 72.6977 45.4477 72.25 46 72.25H49.835L47.123 69.5381C46.7325 69.1476 46.7325 68.5136 47.123 68.123C47.5136 67.7325 48.1476 67.7325 48.5381 68.123L51.25 70.835V67C51.25 66.4477 51.6977 66 52.25 66Z" fill="url(#paint2_linear_568_183)"/>
<path d="M70.25 48C70.8023 48 71.25 48.4477 71.25 49V52.835L73.9619 50.123C74.3524 49.7326 74.9864 49.7325 75.377 50.123C75.7675 50.5136 75.7674 51.1476 75.377 51.5381L72.665 54.25H76.5C77.0523 54.25 77.5 54.6977 77.5 55.25C77.5 55.8023 77.0523 56.25 76.5 56.25H72.665L75.377 58.9619C75.7674 59.3524 75.7675 59.9864 75.377 60.377C74.9864 60.7675 74.3524 60.7674 73.9619 60.377L71.25 57.665V61.5C71.25 62.0523 70.8023 62.5 70.25 62.5C69.6977 62.5 69.25 62.0523 69.25 61.5V57.665L66.5381 60.377C66.1476 60.7675 65.5136 60.7675 65.123 60.377C64.7325 59.9864 64.7325 59.3524 65.123 58.9619L67.835 56.25H64C63.4477 56.25 63 55.8023 63 55.25C63 54.6977 63.4477 54.25 64 54.25H67.835L65.123 51.5381C64.7325 51.1476 64.7325 50.5136 65.123 50.123C65.5136 49.7325 66.1476 49.7325 66.5381 50.123L69.25 52.835V49C69.25 48.4477 69.6977 48 70.25 48Z" fill="url(#paint3_linear_568_183)"/>
<path d="M104.25 39C104.802 39 105.25 39.4477 105.25 40V43.835L107.962 41.123C108.352 40.7326 108.986 40.7325 109.377 41.123C109.767 41.5136 109.767 42.1476 109.377 42.5381L106.665 45.25H110.5C111.052 45.25 111.5 45.6977 111.5 46.25C111.5 46.8023 111.052 47.25 110.5 47.25H106.665L109.377 49.9619C109.767 50.3524 109.767 50.9864 109.377 51.377C108.986 51.7675 108.352 51.7674 107.962 51.377L105.25 48.665V52.5C105.25 53.0523 104.802 53.5 104.25 53.5C103.698 53.5 103.25 53.0523 103.25 52.5V48.665L100.538 51.377C100.148 51.7675 99.5136 51.7675 99.123 51.377C98.7325 50.9864 98.7325 50.3524 99.123 49.9619L101.835 47.25H98C97.4477 47.25 97 46.8023 97 46.25C97 45.6977 97.4477 45.25 98 45.25H101.835L99.123 42.5381C98.7325 42.1476 98.7325 41.5136 99.123 41.123C99.5136 40.7325 100.148 40.7325 100.538 41.123L103.25 43.835V40C103.25 39.4477 103.698 39 104.25 39Z" fill="url(#paint4_linear_568_183)"/>
<path d="M99.25 63C99.8023 63 100.25 63.4477 100.25 64V67.835L102.962 65.123C103.352 64.7326 103.986 64.7325 104.377 65.123C104.767 65.5136 104.767 66.1476 104.377 66.5381L101.665 69.25H105.5C106.052 69.25 106.5 69.6977 106.5 70.25C106.5 70.8023 106.052 71.25 105.5 71.25H101.665L104.377 73.9619C104.767 74.3524 104.767 74.9864 104.377 75.377C103.986 75.7675 103.352 75.7674 102.962 75.377L100.25 72.665V76.5C100.25 77.0523 99.8023 77.5 99.25 77.5C98.6977 77.5 98.25 77.0523 98.25 76.5V72.665L95.5381 75.377C95.1476 75.7675 94.5136 75.7675 94.123 75.377C93.7325 74.9864 93.7325 74.3524 94.123 73.9619L96.835 71.25H93C92.4477 71.25 92 70.8023 92 70.25C92 69.6977 92.4477 69.25 93 69.25H96.835L94.123 66.5381C93.7325 66.1476 93.7325 65.5136 94.123 65.123C94.5136 64.7325 95.1476 64.7325 95.5381 65.123L98.25 67.835V64C98.25 63.4477 98.6977 63 99.25 63Z" fill="url(#paint5_linear_568_183)"/>
<path d="M131.25 51C131.802 51 132.25 51.4477 132.25 52V55.835L134.962 53.123C135.352 52.7326 135.986 52.7325 136.377 53.123C136.767 53.5136 136.767 54.1476 136.377 54.5381L133.665 57.25H137.5C138.052 57.25 138.5 57.6977 138.5 58.25C138.5 58.8023 138.052 59.25 137.5 59.25H133.665L136.377 61.9619C136.767 62.3524 136.767 62.9864 136.377 63.377C135.986 63.7675 135.352 63.7674 134.962 63.377L132.25 60.665V64.5C132.25 65.0523 131.802 65.5 131.25 65.5C130.698 65.5 130.25 65.0523 130.25 64.5V60.665L127.538 63.377C127.148 63.7675 126.514 63.7675 126.123 63.377C125.733 62.9864 125.733 62.3524 126.123 61.9619L128.835 59.25H125C124.448 59.25 124 58.8023 124 58.25C124 57.6977 124.448 57.25 125 57.25H128.835L126.123 54.5381C125.733 54.1476 125.733 53.5136 126.123 53.123C126.514 52.7325 127.148 52.7325 127.538 53.123L130.25 55.835V52C130.25 51.4477 130.698 51 131.25 51Z" fill="url(#paint6_linear_568_183)"/>
<path d="M75.7275 -58C91.8147 -57.9999 106.091 -50.2472 115.024 -38.2744C118.885 -39.5119 123.001 -40.1816 127.272 -40.1816C149.414 -40.1816 167.363 -22.2324 167.363 -0.0908203C167.363 21.7047 149.971 39.4384 128.308 39.9873L127.272 40H24.1816V39.7393C10.5242 37.8768 0 26.1686 0 12C0 -3.20401 12.1181 -15.5775 27.2227 -15.9893C30.6147 -39.7405 51.0385 -58 75.7275 -58Z" fill="#D8D8D8"/>
<defs>
<linearGradient id="paint0_linear_568_183" x1="38.25" y1="34" x2="38.25" y2="53.5" gradientUnits="userSpaceOnUse">
<stop stop-color="white" stop-opacity="0"/>
<stop offset="1" stop-color="white"/>
</linearGradient>
<linearGradient id="paint1_linear_568_183" x1="22.25" y1="58" x2="22.25" y2="77.5" gradientUnits="userSpaceOnUse">
<stop stop-color="white" stop-opacity="0"/>
<stop offset="1" stop-color="white"/>
</linearGradient>
<linearGradient id="paint2_linear_568_183" x1="52.25" y1="61" x2="52.25" y2="80.5" gradientUnits="userSpaceOnUse">
<stop stop-color="white" stop-opacity="0"/>
<stop offset="1" stop-color="white"/>
</linearGradient>
<linearGradient id="paint3_linear_568_183" x1="70.25" y1="43" x2="70.25" y2="62.5" gradientUnits="userSpaceOnUse">
<stop stop-color="white" stop-opacity="0"/>
<stop offset="1" stop-color="white"/>
</linearGradient>
<linearGradient id="paint4_linear_568_183" x1="104.25" y1="34" x2="104.25" y2="53.5" gradientUnits="userSpaceOnUse">
<stop stop-color="white" stop-opacity="0"/>
<stop offset="1" stop-color="white"/>
</linearGradient>
<linearGradient id="paint5_linear_568_183" x1="99.25" y1="58" x2="99.25" y2="77.5" gradientUnits="userSpaceOnUse">
<stop stop-color="white" stop-opacity="0"/>
<stop offset="1" stop-color="white"/>
</linearGradient>
<linearGradient id="paint6_linear_568_183" x1="131.25" y1="46" x2="131.25" y2="65.5" gradientUnits="userSpaceOnUse">
<stop stop-color="white" stop-opacity="0"/>
<stop offset="1" stop-color="white"/>
</linearGradient>
</defs>
</svg>
