<svg width="161" height="80" viewBox="0 0 161 80" fill="none" xmlns="http://www.w3.org/2000/svg">
<path d="M20.5 59.5L10 75.5" stroke="url(#paint0_linear_568_151)" stroke-opacity="0.3" stroke-width="2" stroke-linecap="round"/>
<path d="M48 49L37.5 65" stroke="url(#paint1_linear_568_151)" stroke-opacity="0.3" stroke-width="2" stroke-linecap="round"/>
<path d="M67 60L56.5 76" stroke="url(#paint2_linear_568_151)" stroke-opacity="0.3" stroke-width="2" stroke-linecap="round"/>
<path d="M95 49L84.5 65" stroke="url(#paint3_linear_568_151)" stroke-opacity="0.3" stroke-width="2" stroke-linecap="round"/>
<path d="M119 61L108.5 77" stroke="url(#paint4_linear_568_151)" stroke-opacity="0.3" stroke-width="2" stroke-linecap="round"/>
<path d="M147 48L136.5 64" stroke="url(#paint5_linear_568_151)" stroke-opacity="0.3" stroke-width="2" stroke-linecap="round"/>
<path d="M70 47L77.5 36H88L83.5 42H92.5L71 60.5L79 47H70Z" fill="url(#paint6_linear_568_151)"/>
<path d="M11.5 50.5L1 66.5" stroke="url(#paint7_linear_568_151)" stroke-opacity="0.3" stroke-width="2" stroke-linecap="round"/>
<path d="M19 74L8.5 90" stroke="white" stroke-opacity="0.3" stroke-width="2" stroke-linecap="round"/>
<path d="M39 40L28.5 56" stroke="url(#paint8_linear_568_151)" stroke-opacity="0.3" stroke-width="2" stroke-linecap="round"/>
<path d="M58 51L47.5 67" stroke="url(#paint9_linear_568_151)" stroke-opacity="0.3" stroke-width="2" stroke-linecap="round"/>
<path d="M65.5 74.5L55 90.5" stroke="white" stroke-opacity="0.3" stroke-width="2" stroke-linecap="round"/>
<path d="M86 40L75.5 56" stroke="url(#paint10_linear_568_151)" stroke-opacity="0.3" stroke-width="2" stroke-linecap="round"/>
<path d="M110 52L99.5 68" stroke="url(#paint11_linear_568_151)" stroke-opacity="0.3" stroke-width="2" stroke-linecap="round"/>
<path d="M117.5 75.5L107 91.5" stroke="white" stroke-opacity="0.3" stroke-width="2" stroke-linecap="round"/>
<path d="M138 39L127.5 55" stroke="url(#paint12_linear_568_151)" stroke-opacity="0.3" stroke-width="2" stroke-linecap="round"/>
<path d="M87.7275 -58C103.815 -57.9999 118.091 -50.2472 127.024 -38.2744C130.885 -39.5119 135.001 -40.1816 139.272 -40.1816C161.414 -40.1816 179.363 -22.2324 179.363 -0.0908203C179.363 21.7047 161.971 39.4384 140.308 39.9873L139.272 40H36.1816V39.7393C22.5242 37.8768 12 26.1686 12 12C12 -3.20401 24.1181 -15.5775 39.2227 -15.9893C42.6147 -39.7405 63.0385 -58 87.7275 -58Z" fill="#1F4F72"/>
<defs>
<linearGradient id="paint0_linear_568_151" x1="15.25" y1="59.5" x2="15.25" y2="75.5" gradientUnits="userSpaceOnUse">
<stop stop-color="white" stop-opacity="0"/>
<stop offset="0.895833" stop-color="white"/>
</linearGradient>
<linearGradient id="paint1_linear_568_151" x1="42.75" y1="49" x2="42.75" y2="65" gradientUnits="userSpaceOnUse">
<stop stop-color="white" stop-opacity="0"/>
<stop offset="0.895833" stop-color="white"/>
</linearGradient>
<linearGradient id="paint2_linear_568_151" x1="61.75" y1="60" x2="61.75" y2="76" gradientUnits="userSpaceOnUse">
<stop stop-color="white" stop-opacity="0"/>
<stop offset="0.895833" stop-color="white"/>
</linearGradient>
<linearGradient id="paint3_linear_568_151" x1="89.75" y1="49" x2="89.75" y2="65" gradientUnits="userSpaceOnUse">
<stop stop-color="white" stop-opacity="0"/>
<stop offset="0.895833" stop-color="white"/>
</linearGradient>
<linearGradient id="paint4_linear_568_151" x1="113.75" y1="61" x2="113.75" y2="77" gradientUnits="userSpaceOnUse">
<stop stop-color="white" stop-opacity="0"/>
<stop offset="0.895833" stop-color="white"/>
</linearGradient>
<linearGradient id="paint5_linear_568_151" x1="141.75" y1="48" x2="141.75" y2="64" gradientUnits="userSpaceOnUse">
<stop stop-color="white" stop-opacity="0"/>
<stop offset="0.895833" stop-color="white"/>
</linearGradient>
<linearGradient id="paint6_linear_568_151" x1="81" y1="36" x2="81" y2="43" gradientUnits="userSpaceOnUse">
<stop stop-color="#FFE600" stop-opacity="0"/>
<stop offset="1" stop-color="#FFE600"/>
</linearGradient>
<linearGradient id="paint7_linear_568_151" x1="6.25" y1="50.5" x2="6.25" y2="66.5" gradientUnits="userSpaceOnUse">
<stop stop-color="white" stop-opacity="0"/>
<stop offset="0.895833" stop-color="white"/>
</linearGradient>
<linearGradient id="paint8_linear_568_151" x1="33.75" y1="40" x2="33.75" y2="56" gradientUnits="userSpaceOnUse">
<stop stop-color="white" stop-opacity="0"/>
<stop offset="0.895833" stop-color="white"/>
</linearGradient>
<linearGradient id="paint9_linear_568_151" x1="52.75" y1="51" x2="52.75" y2="67" gradientUnits="userSpaceOnUse">
<stop stop-color="white" stop-opacity="0"/>
<stop offset="0.895833" stop-color="white"/>
</linearGradient>
<linearGradient id="paint10_linear_568_151" x1="80.75" y1="40" x2="80.75" y2="56" gradientUnits="userSpaceOnUse">
<stop stop-color="white" stop-opacity="0"/>
<stop offset="0.895833" stop-color="white"/>
</linearGradient>
<linearGradient id="paint11_linear_568_151" x1="104.75" y1="52" x2="104.75" y2="68" gradientUnits="userSpaceOnUse">
<stop stop-color="white" stop-opacity="0"/>
<stop offset="0.895833" stop-color="white"/>
</linearGradient>
<linearGradient id="paint12_linear_568_151" x1="132.75" y1="39" x2="132.75" y2="55" gradientUnits="userSpaceOnUse">
<stop stop-color="white" stop-opacity="0"/>
<stop offset="0.895833" stop-color="white"/>
</linearGradient>
</defs>
</svg>
